<svg xmlns="http://www.w3.org/2000/svg" width="32" height="32" viewBox="0 0 32 32" fill="none">
    <defs>
        <linearGradient id="logoGradient" x1="0%" y1="0%" x2="100%" y2="100%">
            <stop offset="0%" style="stop-color:#06b6d4;stop-opacity:1" />
            <stop offset="100%" style="stop-color:#a855f7;stop-opacity:1" />
        </linearGradient>
    </defs>
    <path d="M16 2L4 7V16C4 22.6 9.1 28.7 16 30C22.9 28.7 28 22.6 28 16V7L16 2Z" fill="url(#logoGradient)"/>
    <path d="M16 10C14.3431 10 13 11.3431 13 13V15H12V21H20V15H19V13C19 11.3431 17.6569 10 16 10ZM16 12C16.5523 12 17 12.4477 17 13V15H15V13C15 12.4477 15.4477 12 16 12Z" fill="white"/>
</svg>
